<svg xmlns="http://www.w3.org/2000/svg" width="156" height="156">
    <defs>
        <filter id="a">
            <feFlood flood-color="#00BAC6" flood-opacity="1" result="floodOut"/>
            <feComposite operator="atop" in="floodOut" in2="SourceGraphic" result="compOut"/>
            <feBlend in="compOut" in2="SourceGraphic"/>
        </filter>
    </defs>
    <g filter="url(#a)">
        <path fill-rule="evenodd" fill="#FFF" d="m115.431 19.553-5.433 5.399L91.886 6.955l5.433-5.398c2.001-1.988 5.143-2.089 7.018-.225l11.32 11.248c1.876 1.863 1.775 4.985-.226 6.973zM67.394 67.289 49.282 49.293 89.128 9.701l18.113 17.996-39.847 39.592zm-2.52 2.509-25.357 7.198 7.244-25.194 18.113 17.996zM22.658 15.053c-6.257 0-11.329 5.072-11.329 11.328v67.964c0 6.255 5.072 11.327 11.329 11.327h67.975c6.257 0 11.33-5.072 11.33-11.327V49.036l11.329-11.328V98.12c0 10.427-8.454 18.879-18.882 18.879H18.881c-10.427 0-18.882-8.452-18.882-18.879V22.605c0-10.426 8.455-18.879 18.882-18.879h60.423L67.975 15.053H22.658z"/>
    </g>
</svg>
